<?xml version="1.0" encoding="UTF-8" standalone="no"?>
<!-- Created with Inkscape (http://www.inkscape.org/) -->

<svg
   xmlns:dc="http://purl.org/dc/elements/1.1/"
   xmlns:cc="http://creativecommons.org/ns#"
   xmlns:rdf="http://www.w3.org/1999/02/22-rdf-syntax-ns#"
   xmlns:svg="http://www.w3.org/2000/svg"
   xmlns="http://www.w3.org/2000/svg"
   xmlns:sodipodi="http://sodipodi.sourceforge.net/DTD/sodipodi-0.dtd"
   xmlns:inkscape="http://www.inkscape.org/namespaces/inkscape"
   width="1024"
   height="1024"
   viewBox="0 0 270.93333 270.93334"
   version="1.1"
   id="svg8"
   inkscape:version="0.92.2 5c3e80d, 2017-08-06"
   sodipodi:docname="federation.svg"
   inkscape:export-filename="/Users/danix/src/HIja'/img/federation.png"
   inkscape:export-xdpi="96"
   inkscape:export-ydpi="96">
  <defs
     id="defs2">
    <clipPath
       id="Clip0">
      <path
         id="path1096"
         transform="translate(0, 0)"
         d="M0 0 L344 0 L344 185.547 L0 185.547 L0 0 Z" />
    </clipPath>
    <clipPath
       id="Clip1">
      <path
         id="path1099"
         transform="translate(103.862, 26.3128)"
         d="M0 0 L141.915 0 L141.915 109.635 L0 109.635 L0 0 Z" />
    </clipPath>
    <clipPath
       id="Clip2">
      <path
         id="path1102"
         transform="translate(29.796, 152.123)"
         d="M0 0 L279.013 0 L279.013 13.17 L0 13.17 L0 0 Z" />
    </clipPath>
  </defs>
  <sodipodi:namedview
     id="base"
     pagecolor="#ffffff"
     bordercolor="#666666"
     borderopacity="1.0"
     inkscape:pageopacity="0.0"
     inkscape:pageshadow="2"
     inkscape:zoom="0.41602606"
     inkscape:cx="238.76822"
     inkscape:cy="484.57479"
     inkscape:document-units="mm"
     inkscape:current-layer="layer1"
     showgrid="false"
     units="px"
     inkscape:window-width="1366"
     inkscape:window-height="658"
     inkscape:window-x="18"
     inkscape:window-y="0"
     inkscape:window-maximized="0" />
  <metadata
     id="metadata5">
    <rdf:RDF>
      <cc:Work
         rdf:about="">
        <dc:format>image/svg+xml</dc:format>
        <dc:type
           rdf:resource="http://purl.org/dc/dcmitype/StillImage" />
        <dc:title />
      </cc:Work>
    </rdf:RDF>
  </metadata>
  <g
     inkscape:label="Layer 1"
     inkscape:groupmode="layer"
     id="layer1"
     transform="translate(0,-26.06665)">
    <path
       style="opacity:1;fill:#ffffff;stroke:#000000;stroke-width:0.70555556;stroke-miterlimit:4;stroke-dasharray:none"
       d="m 135.46666,76.488896 a 103.1875,85.044639 0 0 1 103.1875,85.044414 103.1875,85.044639 0 0 1 -22.82341,53.30166 L 231.09442,243.22962 197.744,229.20929 A 103.1875,85.044639 0 0 1 135.46666,246.57773 103.1875,85.044639 0 0 1 32.279166,161.53331 103.1875,85.044639 0 0 1 135.46666,76.488896 Z"
       id="path3701"
       inkscape:connector-curvature="0" />
    <g
       aria-label=""
       style="font-style:normal;font-variant:normal;font-weight:normal;font-stretch:normal;font-size:10.58333302px;line-height:1.25;font-family:pIqaD;-inkscape-font-specification:pIqaD;letter-spacing:0px;word-spacing:0px;opacity:0.87999998;fill:#000000;fill-opacity:1;stroke:none;stroke-width:0.26458332"
       id="text4516" />
    <g
       id="g1850"
       transform="matrix(3,0,0,3,252.90401,58.875455)">
      <path
         id="path1109"
         d="m -39.146032,15.933979 c -8.873913,0 -16.067899,7.194162 -16.067899,16.06871 0,8.874584 7.193809,16.068852 16.067899,16.068852 8.874125,0 16.068005,-7.194092 16.068005,-16.069063 -1.77e-4,-8.874337 -7.19388,-16.068499 -16.068005,-16.068499 z m 0,31.352667 c -8.440526,0 -15.283088,-6.84276 -15.283088,-15.283957 0,-8.440949 6.842738,-15.283861 15.283088,-15.283861 8.440738,0 15.283251,6.843089 15.283251,15.283861 0,8.44102 -6.842513,15.283957 -15.283251,15.283957 z"
         style="fill:#000000;fill-rule:nonzero;stroke:none;stroke-width:0.35277778"
         inkscape:connector-curvature="0" />
      <path
         id="path1111"
         d="m -39.145538,48.863033 c -9.311146,0 -16.859673,-7.548527 -16.859673,-16.860556 0,-9.311992 7.548527,-16.860308 16.859673,-16.860308 9.311535,0 16.859639,7.548704 16.859639,16.860308 0,9.312029 -7.548316,16.860556 -16.859639,16.860556 z"
         style="fill:none;stroke:#000000;stroke-width:0.4144116;stroke-linecap:butt;stroke-linejoin:miter;stroke-dasharray:none"
         inkscape:connector-curvature="0" />
      <path
         id="path1113"
         d="m -53.571397,19.38471 c 1.521424,-1.247937 3.256633,-3.91557 3.256633,-3.91557 0,0 -0.555978,0.03065 -1.2972,0.438211 -0.922655,0.507425 -2.070699,1.413736 -2.070699,1.413736 l 0.112218,-1.122426 c 0,0 -0.913976,0.724119 -1.497506,1.68287 -0.595313,0.977635 -0.859825,2.190072 -0.859825,2.190072 0,0 1.095974,0.346463 2.356379,-0.686893 z m -2.88537,3.635445 c 0.863494,-0.781367 1.483254,-1.881999 1.483254,-1.881999 0,0 -0.527226,0.262573 -1.018469,0.341807 -0.357188,0.05743 -0.72136,-0.0611 -0.72136,-0.0611 0,0 -0.189512,-0.395041 -0.151342,-1.068635 0.04512,-0.802428 0.319617,-1.906132 0.319617,-1.906132 0,0 -1.022703,1.103316 -1.46491,2.430113 -0.124354,0.372851 -0.217099,0.759989 -0.287443,1.135168 -0.270863,1.26238 -0.212266,2.327734 -0.212266,2.327734 0,0 1.149173,-0.499322 2.052919,-1.316956 z m -1.616463,4.112613 c 0.700758,-0.772301 1.135098,-1.953154 1.135098,-1.953154 0,0 -0.593372,0.331223 -1.203537,0.472158 -0.464185,0.106997 -0.985096,0.03313 -0.985096,0.03313 0,0 -0.163301,-0.480413 -0.228459,-1.167906 -0.115852,-1.225198 -0.05242,-3.154257 -0.05242,-3.154257 0,0 -1.055864,1.91904 -1.099432,3.65319 -0.04029,1.600165 0.819115,3.194332 0.819115,3.194332 0,0 0.941176,-0.335033 1.614734,-1.077489 z m -2.007799,4.838489 c 0,0 1.026759,-0.774454 1.580797,-1.67827 0.510469,-0.833014 0.551921,-1.801989 0.551921,-1.801989 0,0 -0.494877,0.270651 -1.021715,0.475615 -0.481754,0.187184 -0.99882,0.310162 -0.99882,0.310162 0,0 -0.573123,-0.625757 -0.925153,-1.447623 -0.534581,-1.247564 -0.927272,-2.874328 -0.927272,-2.874328 0,0 -0.567352,2.178156 -0.128771,3.94776 0.431256,1.738418 1.869013,3.068673 1.869013,3.068673 z m 0.28067,4.265612 c 0,0 0.708095,-0.746407 1.089413,-1.686666 0.403683,-0.994621 0.481965,-2.18627 0.481965,-2.18627 l -1.627258,1.459266 c 0,0 -0.874469,-0.579367 -1.625738,-1.573177 -1.028481,-1.361299 -2.022461,-3.253917 -2.022461,-3.253917 0,0 -0.125306,2.962205 0.807943,4.786807 0.918605,1.795709 2.896136,2.453957 2.896136,2.453957 z m 1.066271,3.929133 c 0,0 0.625016,-0.723688 0.821443,-1.655692 0.246768,-1.173021 0.07673,-2.610167 0.07673,-2.610167 0,0 -0.284727,0.595453 -0.647524,1.139895 -0.305576,0.458788 -0.699241,0.880781 -0.699241,0.880781 0,0 -1.020586,-0.411022 -2.01725,-1.350892 -1.402101,-1.322811 -2.978083,-3.476449 -2.978083,-3.476449 0,0 0.145357,3.211901 1.480555,4.922837 1.358336,1.740959 3.963371,2.149687 3.963371,2.149687 z m 2.189021,3.76047 c 0,0 0.380189,-1.012437 0.366889,-2.132718 -0.01468,-1.232147 -0.422981,-2.582263 -0.422981,-2.582263 l -1.291025,2.469621 c 0,0 -1.212603,0.03909 -2.423478,-0.597747 -1.483243,-0.779921 -3.020476,-2.264833 -3.020476,-2.264833 0,0 1.006122,2.807335 2.749261,4.118222 1.6498,1.241178 4.04181,0.989718 4.04181,0.989718 z m 2.637825,3.255716 c 0,0 0.178929,-1.141448 0.0098,-2.181261 -0.194134,-1.194188 -0.739317,-2.309071 -0.739317,-2.309071 0,0 -0.103328,0.815516 -0.347944,1.549223 -0.199919,0.599864 -0.550228,1.144905 -0.550228,1.144905 0,0 -0.691868,0.102024 -1.573671,0.02427 -1.265026,-0.112078 -2.860287,-0.417019 -2.860287,-0.417019 0,0 0.86173,1.192283 2.413635,1.752706 1.477081,0.533294 3.647969,0.436245 3.647969,0.436245 z m 1.234758,-1.964655 -0.224367,2.86258 c 0,0 -0.650452,0.256046 -1.517403,0.291677 -1.143,0.04695 -2.580181,-0.123226 -2.580181,-0.123226 0,0 1.257159,1.072515 2.755406,1.419261 1.532255,0.354824 3.30641,-0.01598 3.30641,-0.01598 0,0 0.188947,-1.012261 -0.211103,-1.980071 -0.464608,-1.125079 -1.528762,-2.45424 -1.528762,-2.454241 z m 10.524948,5.897139 c -0.959096,-0.529308 -2.386682,-0.845608 -2.386682,-0.845608 0,0 -1.437958,-0.234668 -2.801867,-0.632425 -1.329443,-0.388126 -2.586179,-0.93913 -2.586179,-0.93913 0,0 0.282258,0.702522 0.130528,1.18805 -0.126647,0.405271 -0.691692,0.607801 -0.691692,0.607801 l 1.234546,0.393065 c 0,0 3.117462,0.09066 4.940053,0.38735 1.617098,0.262819 1.963844,0.734836 1.963844,0.734836 0,0 -0.197274,0.207786 -0.891893,0.319617 -0.991623,0.160161 -2.475794,0.129822 -2.475794,0.129822 l 1.065953,1.010356 c 0,0 1.168894,0.142522 2.178262,-0.149931 0.923254,-0.267406 1.694744,-0.972961 1.694744,-0.972961 0,0 -0.453284,-0.722489 -1.373823,-1.230842 z M -24.720172,19.38471 c 1.260122,1.033356 2.356203,0.686893 2.356203,0.686893 0,0 -0.264584,-1.212437 -0.85972,-2.190263 -0.583494,-0.95856 -1.497894,-1.682873 -1.497894,-1.682873 l 0.112183,1.122426 c 0,0 -1.148292,-0.906502 -2.070805,-1.413732 -0.741187,-0.407753 -1.297164,-0.438214 -1.297164,-0.438214 0,0 1.735314,2.66802 3.257197,3.915763 z m 2.885017,3.635445 c 0.903816,0.817457 2.052814,1.317343 2.052814,1.317343 0,0 0.05891,-1.064189 -0.211667,-2.325617 -0.0702,-0.375955 -0.164042,-0.764222 -0.287867,-1.137461 -0.442736,-1.327009 -1.465086,-2.430135 -1.465086,-2.430135 0,0 0.274108,1.103902 0.319264,1.90633 0.0381,0.673771 -0.150989,1.068635 -0.150989,1.068635 0,0 -0.364772,0.118533 -0.721431,0.0611 -0.491066,-0.07945 -1.018469,-0.341806 -1.018469,-0.341806 0,0 0.619831,1.100419 1.483431,1.881611 z m 0.481188,2.159459 c 0,0 0.43427,1.180853 1.135239,1.953154 0.673806,0.742809 1.615017,1.077701 1.615017,1.077701 0,0 0.859367,-1.594379 0.81915,-3.194332 -0.0441,-1.734185 -1.099608,-3.653191 -1.099608,-3.653191 0,0 0.06315,1.92906 -0.05256,3.154222 -0.06491,0.687317 -0.228247,1.16773 -0.228247,1.16773 0,0 -0.521053,0.07405 -0.985309,-0.03313 -0.610305,-0.140935 -1.203678,-0.472158 -1.203678,-0.472158 z m 2.032001,3.786999 c -0.526345,-0.204964 -1.021998,-0.475615 -1.021998,-0.475615 0,0 0.04163,0.968587 0.552098,1.801989 0.554213,0.903816 1.580797,1.67827 1.580797,1.67827 0,0 1.437569,-1.330255 1.868311,-3.068673 0.438503,-1.769604 -0.128764,-3.94776 -0.128764,-3.94776 0,0 -0.392289,1.626764 -0.9271,2.874116 -0.352425,0.822078 -0.924983,1.447835 -0.924983,1.447835 0,0 -0.516467,-0.122978 -0.998361,-0.310162 z m 0.88653,4.856974 -1.627364,-1.459054 c 0,0 0.07796,1.191648 0.481895,2.186058 0.381352,0.940435 1.089377,1.686843 1.089377,1.686843 0,0 1.977673,-0.658425 2.895953,-2.453958 0.93345,-1.824567 0.808214,-4.786806 0.808214,-4.786806 0,0 -0.994128,1.892829 -2.022828,3.253916 -0.751064,0.993458 -1.625247,1.573001 -1.625247,1.573001 z m 1.343731,2.746516 c -0.99695,0.940082 -2.017184,1.351104 -2.017184,1.351104 0,0 -0.394052,-0.422205 -0.699558,-0.880781 -0.363008,-0.54423 -0.6477,-1.139895 -0.6477,-1.139895 0,0 -0.170392,1.436969 0.07691,2.610167 0.196145,0.932004 0.821267,1.655692 0.821267,1.655692 0,0 2.605264,-0.408905 3.963811,-2.149686 1.335617,-1.710726 1.480609,-4.922662 1.480609,-4.922662 0,0 -1.575859,2.15325 -2.97815,3.476061 z m -3.30835,5.111221 -1.290814,-2.469656 c 0,0 -0.407811,1.349939 -0.422628,2.582262 -0.01341,1.120105 0.366536,2.132754 0.366536,2.132754 0,0 2.392186,0.251425 4.042128,-0.989542 1.743428,-1.311063 2.74955,-4.118222 2.74955,-4.118222 0,0 -1.537758,1.484912 -3.020483,2.264834 -1.211792,0.636658 -2.424289,0.59757 -2.424289,0.59757 z m -2.356909,3.704484 c 0,0 -0.349955,-0.545042 -0.550333,-1.14494 -0.244828,-0.733672 -0.347839,-1.549189 -0.347839,-1.549189 0,0 -0.545394,1.114672 -0.739422,2.309072 -0.168981,1.040201 0.0095,2.18126 0.0095,2.18126 0,0 2.171347,0.09701 3.648075,-0.436456 1.551869,-0.560423 2.413705,-1.752706 2.413705,-1.752706 0,0 -1.595613,0.304765 -2.860675,0.416807 -0.881239,0.07835 -1.573036,-0.02385 -1.573036,-0.02385 z m -1.120775,2.985982 c -0.867128,-0.03581 -1.517297,-0.291677 -1.517297,-0.291677 l -0.224719,-2.86258 c 0,0 -1.064331,1.328949 -1.529292,2.454063 -0.40005,0.967987 -0.210961,1.980071 -0.210961,1.980071 0,0 1.774119,0.371158 3.30588,0.01595 1.498248,-0.346922 2.755548,-1.419225 2.755548,-1.419225 0,0 -1.436159,0.170356 -2.579159,0.123402 z m -4.622447,1.513769 c -0.151694,-0.486092 0.130528,-1.187838 0.130528,-1.187838 0,0 -1.256877,0.550968 -2.586214,0.938918 -1.364192,0.397757 -2.801973,0.632425 -2.801973,0.632425 0,0 -1.42755,0.316124 -2.386083,0.845608 -0.920574,0.508353 -1.374211,1.231547 -1.374211,1.231547 0,0 0.771667,0.705203 1.694569,0.972609 1.009367,0.292805 2.178226,0.14993 2.178226,0.14993 l 1.0662,-1.010355 c 0,0 -1.484206,0.03034 -2.475865,-0.12947 -0.694584,-0.112183 -0.891646,-0.319616 -0.891646,-0.319616 0,0 0.34671,-0.47237 1.963632,-0.735189 1.822662,-0.296334 4.939947,-0.38735 4.939947,-0.38735 l 1.234687,-0.392854 c 0,-3.88e-4 -0.56515,-0.203094 -0.691797,-0.608365 z"
         style="fill:#000000;fill-rule:nonzero;stroke:none;stroke-width:0.35277778"
         inkscape:connector-curvature="0" />
      <path
         id="path1115"
         d="m -39.769249,32.454209 c 6e-4,0 7.76e-4,0 7.76e-4,0 h -0.0013 c -0.06826,-0.0012 -3.162935,-0.05052 -3.674392,-0.561622 -0.51107,-0.511069 -0.560423,-3.606136 -0.561376,-3.674383 v -0.0013 c 0,0 0,1.93e-4 0,7.71e-4 0,-5.78e-4 0,-7.71e-4 0,-7.71e-4 v 0.0013 c -0.0012,0.06825 -0.05034,3.16312 -0.561587,3.674383 -0.508367,0.5086 -3.573572,0.56007 -3.672662,0.561622 h -0.0025 c 0,0 5.78e-4,0 0.0013,0 -7.71e-4,0 -0.0013,0 -0.0013,0 h 0.0025 c 0.09928,0.0013 3.164295,0.05302 3.672662,0.561411 0.511246,0.511069 0.560423,3.606129 0.561587,3.674357 v 0.0014 c 0,0 0,-1.76e-4 0,-7.76e-4 0,3.88e-4 0,7.76e-4 0,7.76e-4 v -0.0014 c 0.0012,-0.06823 0.05031,-3.1629 0.561552,-3.674357 0.511069,-0.511105 3.605953,-0.560458 3.674216,-0.561411 h 0.0013 c -1.76e-4,0 -3.88e-4,0 -7.76e-4,0 z"
         style="fill:#000000;fill-rule:nonzero;stroke:none;stroke-width:0.35277778"
         inkscape:connector-curvature="0" />
      <path
         id="path1117"
         d="m -32.665504,27.471311 c 3.88e-4,0 5.65e-4,0 5.65e-4,0 h -0.0011 c -0.05246,-7.72e-4 -2.439846,-0.03856 -2.834076,-0.432999 -0.394246,-0.394455 -0.432212,-2.781782 -0.433175,-2.834028 v -7.71e-4 c 0,0 0,0 0,3.86e-4 0,-1.93e-4 0,-3.86e-4 0,-3.86e-4 v 7.71e-4 c -7.7e-4,0.05225 -0.03876,2.439573 -0.432795,2.834028 -0.392113,0.392126 -2.756578,0.431842 -2.833112,0.432999 h -0.0021 c 0,0 5.78e-4,0 0.0013,0 -7.71e-4,0 -0.0013,0 -0.0013,0 h 0.0021 c 0.07653,0.0013 2.440999,0.04087 2.833112,0.433194 0.394232,0.394264 0.432216,2.78197 0.432795,2.834216 v 0.0012 c 0,0 0,-2.12e-4 0,-6e-4 0,3.88e-4 0,6e-4 0,6e-4 v -0.0012 c 9.63e-4,-0.05225 0.03893,-2.439952 0.433387,-2.834216 0.394229,-0.394247 2.781406,-0.432425 2.833864,-0.433194 h 0.0011 c -1.77e-4,0 -3.88e-4,0 -5.65e-4,0 z"
         style="fill:#000000;fill-rule:nonzero;stroke:none;stroke-width:0.35277778"
         inkscape:connector-curvature="0" />
      <path
         id="path1119"
         d="m -31.16948,36.005968 c 2.12e-4,0 6e-4,0 6e-4,0 h -0.0012 c -0.04879,-7.72e-4 -2.277322,-0.03642 -2.645347,-0.404272 -0.368208,-0.368043 -0.403669,-2.5967 -0.404442,-2.645861 v -9.64e-4 c 0,0 0,1.93e-4 0,5.78e-4 0,-1.92e-4 0,-5.78e-4 0,-5.78e-4 v 9.64e-4 c -9.63e-4,0.04897 -0.03625,2.277434 -0.404459,2.645667 -0.365898,0.365922 -2.573046,0.403309 -2.644375,0.404466 h -0.0019 c 0,0 3.86e-4,0 9.64e-4,0 -5.78e-4,0 -9.64e-4,0 -9.64e-4,0 h 0.0019 c 0.07133,0.0013 2.278286,0.03837 2.644375,0.404291 0.368208,0.368229 0.40369,2.596691 0.404459,2.645657 v 0.0012 c 0,0 0,0 0,-3.88e-4 0,2.12e-4 0,3.88e-4 0,3.88e-4 v -0.0012 c 9.63e-4,-0.04879 0.03623,-2.277428 0.404442,-2.645657 0.368025,-0.368039 2.596558,-0.403522 2.645347,-0.404291 h 0.0012 c 0,0 -3.88e-4,0 -6e-4,0 z"
         style="fill:#000000;fill-rule:nonzero;stroke:none;stroke-width:0.35277778"
         inkscape:connector-curvature="0" />
      <path
         id="path1121"
         d="m -33.037398,31.909947 c 0,0.391417 -0.317264,0.708699 -0.70866,0.708699 -0.391385,0 -0.708664,-0.317282 -0.708664,-0.708699 0,-0.391405 0.317279,-0.708699 0.708664,-0.708699 0.391396,0 0.70866,0.317294 0.70866,0.708699 z"
         style="fill:#000000;fill-rule:evenodd;stroke:none;stroke-width:0.35277778"
         inkscape:connector-curvature="0" />
      <path
         id="path1123"
         d="m -37.255562,34.630781 c 0,0.391417 -0.317264,0.708699 -0.70866,0.708699 -0.391385,0 -0.708664,-0.317282 -0.708664,-0.708699 0,-0.391405 0.317279,-0.708699 0.708664,-0.708699 0.391396,0 0.70866,0.317294 0.70866,0.708699 z"
         style="fill:#000000;fill-rule:evenodd;stroke:none;stroke-width:0.35277778"
         inkscape:connector-curvature="0" />
      <path
         id="path1125"
         d="m -41.919637,39.727397 c 0,0.391417 -0.317264,0.708699 -0.70866,0.708699 -0.391385,0 -0.708664,-0.317282 -0.708664,-0.708699 0,-0.391405 0.317279,-0.708699 0.708664,-0.708699 0.391396,0 0.70866,0.317294 0.70866,0.708699 z"
         style="fill:#000000;fill-rule:evenodd;stroke:none;stroke-width:0.35277778"
         inkscape:connector-curvature="0" />
      <path
         id="path1127"
         d="m -38.486492,30.215683 c 0,0.363629 -0.294739,0.658382 -0.658347,0.658382 -0.363596,0 -0.658347,-0.294753 -0.658347,-0.658382 0,-0.363612 0.294751,-0.658379 0.658347,-0.658379 0.363608,0 0.658347,0.294767 0.658347,0.658379 z"
         style="fill:#000000;fill-rule:evenodd;stroke:none;stroke-width:0.35277778"
         inkscape:connector-curvature="0" />
      <path
         id="path1129"
         d="m -38.406165,38.317139 c 0,0.3862 -0.313037,0.699252 -0.699216,0.699252 -0.386167,0 -0.699216,-0.313052 -0.699216,-0.699252 0,-0.386186 0.313049,-0.699251 0.699216,-0.699251 0.386179,0 0.699216,0.313065 0.699216,0.699251 z"
         style="fill:#000000;fill-rule:evenodd;stroke:none;stroke-width:0.35277778"
         inkscape:connector-curvature="0" />
      <path
         id="path1131"
         d="m -47.706957,38.805871 c 0,0.391417 -0.317264,0.708699 -0.70866,0.708699 -0.391385,0 -0.708664,-0.317282 -0.708664,-0.708699 0,-0.391405 0.317279,-0.708699 0.708664,-0.708699 0.391396,0 0.70866,0.317294 0.70866,0.708699 z"
         style="fill:#000000;fill-rule:evenodd;stroke:none;stroke-width:0.35277778"
         inkscape:connector-curvature="0" />
      <path
         id="path1133"
         d="m -25.292868,26.436988 c 0,0.391417 -0.317264,0.708699 -0.70866,0.708699 -0.391385,0 -0.708664,-0.317282 -0.708664,-0.708699 0,-0.391405 0.317279,-0.708699 0.708664,-0.708699 0.391396,0 0.70866,0.317294 0.70866,0.708699 z"
         style="fill:#000000;fill-rule:evenodd;stroke:none;stroke-width:0.35277778"
         inkscape:connector-curvature="0" />
      <path
         id="path1135"
         d="m -29.15823,24.946547 c 0,0.394932 -0.320114,0.71506 -0.715024,0.71506 -0.394896,0 -0.715024,-0.320128 -0.715024,-0.71506 0,-0.394916 0.320128,-0.715059 0.715024,-0.715059 0.39491,0 0.715024,0.320143 0.715024,0.715059 z"
         style="fill:#000000;fill-rule:evenodd;stroke:none;stroke-width:0.35277778"
         inkscape:connector-curvature="0" />
      <path
         id="path1137"
         d="m -38.711117,32.183308 c 0,0.287175 -0.232769,0.519955 -0.519927,0.519955 -0.28715,0 -0.519931,-0.23278 -0.519931,-0.519955 0,-0.287165 0.232781,-0.519956 0.519931,-0.519956 0.287158,0 0.519927,0.232791 0.519927,0.519956 z"
         style="fill:#000000;fill-rule:evenodd;stroke:none;stroke-width:0.35277778"
         inkscape:connector-curvature="0" />
      <path
         id="path1139"
         d="m -45.813239,38.498736 c 0,0.287175 -0.232769,0.519955 -0.519927,0.519955 -0.28715,0 -0.519931,-0.23278 -0.519931,-0.519955 0,-0.287165 0.232781,-0.519956 0.519931,-0.519956 0.287158,0 0.519927,0.232791 0.519927,0.519956 z"
         style="fill:#000000;fill-rule:evenodd;stroke:none;stroke-width:0.35277778"
         inkscape:connector-curvature="0" />
      <path
         id="path1141"
         d="m -51.821398,35.984383 c 0,0.287175 -0.232769,0.519955 -0.519927,0.519955 -0.28715,0 -0.519931,-0.23278 -0.519931,-0.519955 0,-0.287165 0.232781,-0.519956 0.519931,-0.519956 0.287158,0 0.519927,0.232791 0.519927,0.519956 z"
         style="fill:#000000;fill-rule:evenodd;stroke:none;stroke-width:0.35277778"
         inkscape:connector-curvature="0" />
      <path
         id="path1143"
         d="m -36.436759,18.794192 c 0,0.287175 -0.232769,0.519955 -0.519927,0.519955 -0.28715,0 -0.519931,-0.23278 -0.519931,-0.519955 0,-0.287165 0.232781,-0.519956 0.519931,-0.519956 0.287158,0 0.519927,0.232791 0.519927,0.519956 z"
         style="fill:#000000;fill-rule:evenodd;stroke:none;stroke-width:0.35277778"
         inkscape:connector-curvature="0" />
      <path
         id="path1145"
         d="m -33.665689,18.370647 c 0,0.287175 -0.232769,0.519955 -0.519927,0.519955 -0.28715,0 -0.519931,-0.23278 -0.519931,-0.519955 0,-0.287165 0.232781,-0.519956 0.519931,-0.519956 0.287158,0 0.519927,0.232791 0.519927,0.519956 z"
         style="fill:#000000;fill-rule:evenodd;stroke:none;stroke-width:0.35277778"
         inkscape:connector-curvature="0" />
      <path
         id="path1147"
         d="m -50.850832,30.229204 c 0,0.3172 -0.257108,0.574322 -0.574294,0.574322 -0.317174,0 -0.574294,-0.257122 -0.574294,-0.574322 0,-0.317188 0.25712,-0.574322 0.574294,-0.574322 0.317186,0 0.574294,0.257134 0.574294,0.574322 z"
         style="fill:#000000;fill-rule:evenodd;stroke:none;stroke-width:0.35277778"
         inkscape:connector-curvature="0" />
      <path
         id="path1149"
         d="m -52.004094,34.308039 c 0,0.317098 -0.257023,0.574132 -0.574099,0.574132 -0.317069,0 -0.574104,-0.257034 -0.574104,-0.574132 0,-0.317081 0.257035,-0.574128 0.574104,-0.574128 0.317076,0 0.574099,0.257047 0.574099,0.574128 z"
         style="fill:#000000;fill-rule:evenodd;stroke:none;stroke-width:0.35277778"
         inkscape:connector-curvature="0" />
      <path
         id="path1151"
         d="m -41.615815,23.919527 c 0,0.3172 -0.257108,0.574322 -0.574294,0.574322 -0.317174,0 -0.574294,-0.257122 -0.574294,-0.574322 0,-0.317188 0.25712,-0.574322 0.574294,-0.574322 0.317186,0 0.574294,0.257134 0.574294,0.574322 z"
         style="fill:#000000;fill-rule:evenodd;stroke:none;stroke-width:0.35277778"
         inkscape:connector-curvature="0" />
      <path
         id="path1153"
         d="m -44.284331,24.0888 c 0,0.214873 -0.17417,0.389047 -0.389033,0.389047 -0.214857,0 -0.389033,-0.174174 -0.389033,-0.389047 0,-0.21487 0.174176,-0.389054 0.389033,-0.389054 0.214863,0 0.389033,0.174184 0.389033,0.389054 z"
         style="fill:#000000;fill-rule:evenodd;stroke:none;stroke-width:0.35277778"
         inkscape:connector-curvature="0" />
      <path
         id="path1155"
         d="m -39.680581,21.841465 c 0,0.214873 -0.17417,0.389047 -0.389033,0.389047 -0.214857,0 -0.389033,-0.174174 -0.389033,-0.389047 0,-0.21487 0.174176,-0.389054 0.389033,-0.389054 0.214863,0 0.389033,0.174184 0.389033,0.389054 z"
         style="fill:#000000;fill-rule:evenodd;stroke:none;stroke-width:0.35277778"
         inkscape:connector-curvature="0" />
      <path
         id="path1157"
         d="m -38.68222,28.329436 c 0,0.214873 -0.17417,0.389047 -0.389033,0.389047 -0.214857,0 -0.389033,-0.174174 -0.389033,-0.389047 0,-0.21487 0.174176,-0.389054 0.389033,-0.389054 0.214863,0 0.389033,0.174184 0.389033,0.389054 z"
         style="fill:#000000;fill-rule:evenodd;stroke:none;stroke-width:0.35277778"
         inkscape:connector-curvature="0" />
      <path
         id="path1159"
         d="m -42.517973,30.484626 c 0,0.214873 -0.17417,0.389047 -0.389033,0.389047 -0.214857,0 -0.389033,-0.174174 -0.389033,-0.389047 0,-0.21487 0.174176,-0.389054 0.389033,-0.389054 0.214863,0 0.389033,0.174184 0.389033,0.389054 z"
         style="fill:#000000;fill-rule:evenodd;stroke:none;stroke-width:0.35277778"
         inkscape:connector-curvature="0" />
      <path
         id="path1161"
         d="m -40.857064,33.748011 c 0,0.214983 -0.174255,0.389245 -0.389227,0.389245 -0.214961,0 -0.389223,-0.174262 -0.389223,-0.389245 0,-0.214974 0.174262,-0.389244 0.389223,-0.389244 0.214972,0 0.389227,0.17427 0.389227,0.389244 z"
         style="fill:#000000;fill-rule:evenodd;stroke:none;stroke-width:0.35277778"
         inkscape:connector-curvature="0" />
      <path
         id="path1163"
         d="m -40.195284,37.011192 c 0,0.214873 -0.17417,0.389047 -0.389033,0.389047 -0.214857,0 -0.389033,-0.174174 -0.389033,-0.389047 0,-0.21487 0.174176,-0.389054 0.389033,-0.389054 0.214863,0 0.389033,0.174184 0.389033,0.389054 z"
         style="fill:#000000;fill-rule:evenodd;stroke:none;stroke-width:0.35277778"
         inkscape:connector-curvature="0" />
      <path
         id="path1165"
         d="m -40.137397,34.899724 c 0,0.214983 -0.174255,0.389245 -0.389227,0.389245 -0.214961,0 -0.389223,-0.174262 -0.389223,-0.389245 0,-0.214974 0.174262,-0.389244 0.389223,-0.389244 0.214972,0 0.389227,0.17427 0.389227,0.389244 z"
         style="fill:#000000;fill-rule:evenodd;stroke:none;stroke-width:0.35277778"
         inkscape:connector-curvature="0" />
      <path
         id="path1167"
         d="m -38.717498,35.360297 c 0,0.214873 -0.17417,0.389047 -0.389033,0.389047 -0.214857,0 -0.389033,-0.174174 -0.389033,-0.389047 0,-0.21487 0.174176,-0.389054 0.389033,-0.389054 0.214863,0 0.389033,0.174184 0.389033,0.389054 z"
         style="fill:#000000;fill-rule:evenodd;stroke:none;stroke-width:0.35277778"
         inkscape:connector-curvature="0" />
      <path
         id="path1169"
         d="m -33.140787,33.82455 c 0,0.214873 -0.17417,0.389047 -0.389033,0.389047 -0.214857,0 -0.389033,-0.174174 -0.389033,-0.389047 0,-0.21487 0.174176,-0.389054 0.389033,-0.389054 0.214863,0 0.389033,0.174184 0.389033,0.389054 z"
         style="fill:#000000;fill-rule:evenodd;stroke:none;stroke-width:0.35277778"
         inkscape:connector-curvature="0" />
      <path
         id="path1171"
         d="m -35.410881,34.741257 c 0,0.214768 -0.174082,0.389245 -0.389227,0.389245 -0.215142,0 -0.389223,-0.174092 -0.389223,-0.389245 0,-0.214769 0.173888,-0.389244 0.389223,-0.389244 0.214951,0 0.389227,0.174282 0.389227,0.389244 z"
         style="fill:#000000;fill-rule:nonzero;stroke:none;stroke-width:0.35277778"
         inkscape:connector-curvature="0" />
      <path
         id="path1173"
         d="m -30.578562,29.678388 c 0,0.214873 -0.17417,0.389047 -0.389033,0.389047 -0.214857,0 -0.389033,-0.174174 -0.389033,-0.389047 0,-0.21487 0.174176,-0.389054 0.389033,-0.389054 0.214863,0 0.389033,0.174184 0.389033,0.389054 z"
         style="fill:#000000;fill-rule:evenodd;stroke:none;stroke-width:0.35277778"
         inkscape:connector-curvature="0" />
      <path
         id="path1175"
         d="m -38.563656,33.536697 c 0,0.214983 -0.174255,0.389245 -0.389227,0.389245 -0.214961,0 -0.389223,-0.174262 -0.389223,-0.389245 0,-0.214974 0.174262,-0.389244 0.389223,-0.389244 0.214972,0 0.389227,0.17427 0.389227,0.389244 z"
         style="fill:#000000;fill-rule:evenodd;stroke:none;stroke-width:0.35277778"
         inkscape:connector-curvature="0" />
      <path
         id="path1177"
         d="m -36.682676,36.704063 c 0,0.214873 -0.17417,0.389047 -0.389033,0.389047 -0.214857,0 -0.389033,-0.174174 -0.389033,-0.389047 0,-0.21487 0.174176,-0.389054 0.389033,-0.389054 0.214863,0 0.389033,0.174184 0.389033,0.389054 z"
         style="fill:#000000;fill-rule:evenodd;stroke:none;stroke-width:0.35277778"
         inkscape:connector-curvature="0" />
      <path
         id="path1179"
         d="m -29.541717,29.908589 c 0,0.214983 -0.174255,0.389245 -0.389227,0.389245 -0.214961,0 -0.389223,-0.174262 -0.389223,-0.389245 0,-0.214974 0.174262,-0.389244 0.389223,-0.389244 0.214972,0 0.389227,0.17427 0.389227,0.389244 z"
         style="fill:#000000;fill-rule:evenodd;stroke:none;stroke-width:0.35277778"
         inkscape:connector-curvature="0" />
      <path
         id="path1181"
         d="m -26.470817,27.864228 c 0,0.214873 -0.17417,0.389047 -0.389033,0.389047 -0.214857,0 -0.389033,-0.174174 -0.389033,-0.389047 0,-0.21487 0.174176,-0.389054 0.389033,-0.389054 0.214863,0 0.389033,0.174184 0.389033,0.389054 z"
         style="fill:#000000;fill-rule:evenodd;stroke:none;stroke-width:0.35277778"
         inkscape:connector-curvature="0" />
      <path
         id="path1183"
         d="m -26.470617,33.136273 c 0,0.24504 -0.198755,0.443999 -0.443974,0.443999 -0.245409,0 -0.444359,-0.198769 -0.444359,-0.443999 0,-0.245422 0.198757,-0.444574 0.444359,-0.444574 0.244831,3.86e-4 0.443974,0.199345 0.443974,0.444574 z"
         style="fill:#000000;fill-rule:nonzero;stroke:none;stroke-width:0.35277778"
         inkscape:connector-curvature="0" />
      <path
         id="path1185"
         d="m -31.192748,26.645416 c 0,0.214873 -0.17417,0.389047 -0.389033,0.389047 -0.214857,0 -0.389033,-0.174174 -0.389033,-0.389047 0,-0.21487 0.174176,-0.389054 0.389033,-0.389054 0.214863,0 0.389033,0.174184 0.389033,0.389054 z"
         style="fill:#000000;fill-rule:evenodd;stroke:none;stroke-width:0.35277778"
         inkscape:connector-curvature="0" />
      <path
         id="path1187"
         d="m -28.736004,25.935169 c 0,0.214873 -0.17417,0.389047 -0.389033,0.389047 -0.214857,0 -0.389033,-0.174174 -0.389033,-0.389047 0,-0.21487 0.174176,-0.389054 0.389033,-0.389054 0.214863,0 0.389033,0.174184 0.389033,0.389054 z"
         style="fill:#000000;fill-rule:evenodd;stroke:none;stroke-width:0.35277778"
         inkscape:connector-curvature="0" />
      <path
         id="path1189"
         d="m -28.418856,27.144526 c 0,0.214873 -0.17417,0.389047 -0.389033,0.389047 -0.214857,0 -0.389033,-0.174174 -0.389033,-0.389047 0,-0.21487 0.174176,-0.389054 0.389033,-0.389054 0.214863,0 0.389033,0.174184 0.389033,0.389054 z"
         style="fill:#000000;fill-rule:evenodd;stroke:none;stroke-width:0.35277778"
         inkscape:connector-curvature="0" />
      <path
         id="path1191"
         d="m -30.540078,23.113278 c 0,0.214983 -0.174255,0.389245 -0.389227,0.389245 -0.214961,0 -0.389223,-0.174262 -0.389223,-0.389245 0,-0.214974 0.174262,-0.389244 0.389223,-0.389244 0.214972,0 0.389227,0.17427 0.389227,0.389244 z"
         style="fill:#000000;fill-rule:evenodd;stroke:none;stroke-width:0.35277778"
         inkscape:connector-curvature="0" />
      <path
         id="path1193"
         d="m -27.929554,24.034825 c 0,0.214873 -0.17417,0.389047 -0.389033,0.389047 -0.214857,0 -0.389033,-0.174174 -0.389033,-0.389047 0,-0.21487 0.174176,-0.389054 0.389033,-0.389054 0.214863,0 0.389033,0.174184 0.389033,0.389054 z"
         style="fill:#000000;fill-rule:evenodd;stroke:none;stroke-width:0.35277778"
         inkscape:connector-curvature="0" />
      <path
         id="path1195"
         d="m -29.484245,21.078583 c 0,0.214873 -0.17417,0.389047 -0.389033,0.389047 -0.214857,0 -0.389033,-0.174174 -0.389033,-0.389047 0,-0.21487 0.174176,-0.389054 0.389033,-0.389054 0.214863,0 0.389033,0.174184 0.389033,0.389054 z"
         style="fill:#000000;fill-rule:evenodd;stroke:none;stroke-width:0.35277778"
         inkscape:connector-curvature="0" />
      <path
         id="path1197"
         d="m -42.671047,35.552328 c 0,0.214983 -0.174255,0.389245 -0.389227,0.389245 -0.214961,0 -0.389223,-0.174262 -0.389223,-0.389245 0,-0.214974 0.174262,-0.389244 0.389223,-0.389244 0.214972,0 0.389227,0.17427 0.389227,0.389244 z"
         style="fill:#000000;fill-rule:evenodd;stroke:none;stroke-width:0.35277778"
         inkscape:connector-curvature="0" />
      <path
         id="path1199"
         d="m -42.997367,38.393283 c 0,0.214983 -0.174255,0.389245 -0.389227,0.389245 -0.214961,0 -0.389223,-0.174262 -0.389223,-0.389245 0,-0.214974 0.174262,-0.389244 0.389223,-0.389244 0.214972,0 0.389227,0.17427 0.389227,0.389244 z"
         style="fill:#000000;fill-rule:evenodd;stroke:none;stroke-width:0.35277778"
         inkscape:connector-curvature="0" />
      <path
         id="path1201"
         d="m -44.820875,38.94986 c 0,0.214983 -0.174255,0.389245 -0.389227,0.389245 -0.214961,0 -0.389223,-0.174262 -0.389223,-0.389245 0,-0.214974 0.174262,-0.389244 0.389223,-0.389244 0.214972,0 0.389227,0.17427 0.389227,0.389244 z"
         style="fill:#000000;fill-rule:evenodd;stroke:none;stroke-width:0.35277778"
         inkscape:connector-curvature="0" />
      <path
         id="path1203"
         d="m -45.665809,36.646419 c 0,0.214873 -0.17417,0.389047 -0.389033,0.389047 -0.214857,0 -0.389033,-0.174174 -0.389033,-0.389047 0,-0.21487 0.174176,-0.389054 0.389033,-0.389054 0.214863,0 0.389033,0.174184 0.389033,0.389054 z"
         style="fill:#000000;fill-rule:evenodd;stroke:none;stroke-width:0.35277778"
         inkscape:connector-curvature="0" />
      <path
         id="path1205"
         d="m -44.264576,36.646596 c 0,0.214873 -0.17417,0.389047 -0.389033,0.389047 -0.214857,0 -0.389033,-0.174174 -0.389033,-0.389047 0,-0.21487 0.174176,-0.389054 0.389033,-0.389054 0.214863,0 0.389033,0.174184 0.389033,0.389054 z"
         style="fill:#000000;fill-rule:evenodd;stroke:none;stroke-width:0.35277778"
         inkscape:connector-curvature="0" />
      <path
         id="path1207"
         d="m -47.661826,35.283568 c 0,0.214873 -0.17417,0.389047 -0.389033,0.389047 -0.214857,0 -0.389033,-0.174174 -0.389033,-0.389047 0,-0.21487 0.174176,-0.389054 0.389033,-0.389054 0.214863,0 0.389033,0.174184 0.389033,0.389054 z"
         style="fill:#000000;fill-rule:evenodd;stroke:none;stroke-width:0.35277778"
         inkscape:connector-curvature="0" />
      <path
         id="path1209"
         d="m -46.385476,33.162492 c 0,0.214873 -0.17417,0.389047 -0.389033,0.389047 -0.214857,0 -0.389033,-0.174174 -0.389033,-0.389047 0,-0.21487 0.174176,-0.389054 0.389033,-0.389054 0.214863,0 0.389033,0.174184 0.389033,0.389054 z"
         style="fill:#000000;fill-rule:evenodd;stroke:none;stroke-width:0.35277778"
         inkscape:connector-curvature="0" />
      <path
         id="path1211"
         d="m -48.890551,31.924207 c 0,0.214873 -0.17417,0.389047 -0.389033,0.389047 -0.214857,0 -0.389033,-0.174174 -0.389033,-0.389047 0,-0.21487 0.174176,-0.389054 0.389033,-0.389054 0.214863,0 0.389033,0.174184 0.389033,0.389054 z"
         style="fill:#000000;fill-rule:evenodd;stroke:none;stroke-width:0.35277778"
         inkscape:connector-curvature="0" />
      <path
         id="path1213"
         d="m -52.230298,27.749117 c 0,0.214873 -0.17417,0.389047 -0.389033,0.389047 -0.214857,0 -0.389033,-0.174174 -0.389033,-0.389047 0,-0.21487 0.174176,-0.389054 0.389033,-0.389054 0.214863,0 0.389033,0.174184 0.389033,0.389054 z"
         style="fill:#000000;fill-rule:evenodd;stroke:none;stroke-width:0.35277778"
         inkscape:connector-curvature="0" />
      <path
         id="path1215"
         d="m -51.246048,39.254294 c 0,0.214873 -0.17417,0.389047 -0.389033,0.389047 -0.214857,0 -0.389033,-0.174174 -0.389033,-0.389047 0,-0.21487 0.174176,-0.389054 0.389033,-0.389054 0.214863,0 0.389033,0.174184 0.389033,0.389054 z"
         style="fill:#000000;fill-rule:evenodd;stroke:none;stroke-width:0.35277778"
         inkscape:connector-curvature="0" />
      <path
         id="path1217"
         d="m -48.737093,41.512601 c 0,0.214873 -0.17417,0.389047 -0.389033,0.389047 -0.214857,0 -0.389033,-0.174174 -0.389033,-0.389047 0,-0.21487 0.174176,-0.389054 0.389033,-0.389054 0.214863,0 0.389033,0.174184 0.389033,0.389054 z"
         style="fill:#000000;fill-rule:evenodd;stroke:none;stroke-width:0.35277778"
         inkscape:connector-curvature="0" />
      <path
         id="path1219"
         d="m -46.471906,39.66976 c 0,0.214873 -0.17417,0.389047 -0.389033,0.389047 -0.214857,0 -0.389033,-0.174174 -0.389033,-0.389047 0,-0.21487 0.174176,-0.389054 0.389033,-0.389054 0.214863,0 0.389033,0.174184 0.389033,0.389054 z"
         style="fill:#000000;fill-rule:evenodd;stroke:none;stroke-width:0.35277778"
         inkscape:connector-curvature="0" />
      <path
         id="path1221"
         d="m -36.56767,46.253934 c 0,0.214873 -0.17417,0.389047 -0.389033,0.389047 -0.214857,0 -0.389033,-0.174174 -0.389033,-0.389047 0,-0.21487 0.174176,-0.389054 0.389033,-0.389054 0.214863,0 0.389033,0.174184 0.389033,0.389054 z"
         style="fill:#000000;fill-rule:evenodd;stroke:none;stroke-width:0.35277778"
         inkscape:connector-curvature="0" />
      <path
         id="path1223"
         d="m -47.508368,41.73344 c 0,0.214873 -0.17417,0.389047 -0.389033,0.389047 -0.214857,0 -0.389033,-0.174174 -0.389033,-0.389047 0,-0.21487 0.174176,-0.389054 0.389033,-0.389054 0.214863,0 0.389033,0.174184 0.389033,0.389054 z"
         style="fill:#000000;fill-rule:evenodd;stroke:none;stroke-width:0.35277778"
         inkscape:connector-curvature="0" />
      <path
         id="path1225"
         d="m -47.086093,43.873743 c 0,0.214873 -0.17417,0.389047 -0.389033,0.389047 -0.214857,0 -0.389033,-0.174174 -0.389033,-0.389047 0,-0.21487 0.174176,-0.389054 0.389033,-0.389054 0.214863,0 0.389033,0.174184 0.389033,0.389054 z"
         style="fill:#000000;fill-rule:evenodd;stroke:none;stroke-width:0.35277778"
         inkscape:connector-curvature="0" />
      <path
         id="path1227"
         d="m -44.897812,42.193815 c 0,0.214873 -0.17417,0.389047 -0.389033,0.389047 -0.214857,0 -0.389033,-0.174174 -0.389033,-0.389047 0,-0.21487 0.174176,-0.389054 0.389033,-0.389054 0.214863,0 0.389033,0.174184 0.389033,0.389054 z"
         style="fill:#000000;fill-rule:evenodd;stroke:none;stroke-width:0.35277778"
         inkscape:connector-curvature="0" />
      <path
         id="path1229"
         d="m -37.219956,42.942762 c 0,0.214873 -0.17417,0.389047 -0.389033,0.389047 -0.214857,0 -0.389033,-0.174174 -0.389033,-0.389047 0,-0.21487 0.174176,-0.389054 0.389033,-0.389054 0.214863,0 0.389033,0.174184 0.389033,0.389054 z"
         style="fill:#000000;fill-rule:evenodd;stroke:none;stroke-width:0.35277778"
         inkscape:connector-curvature="0" />
      <path
         id="path1231"
         d="m -36.62482,40.4089 c 0,0.214873 -0.17417,0.389047 -0.389033,0.389047 -0.214857,0 -0.389033,-0.174174 -0.389033,-0.389047 0,-0.21487 0.174176,-0.389054 0.389033,-0.389054 0.214863,0 0.389033,0.174184 0.389033,0.389054 z"
         style="fill:#000000;fill-rule:evenodd;stroke:none;stroke-width:0.35277778"
         inkscape:connector-curvature="0" />
      <path
         id="path1233"
         d="m -28.015984,40.754411 c 0,0.214873 -0.17417,0.389047 -0.389033,0.389047 -0.214857,0 -0.389033,-0.174174 -0.389033,-0.389047 0,-0.21487 0.174176,-0.389054 0.389033,-0.389054 0.214863,0 0.389033,0.174184 0.389033,0.389054 z"
         style="fill:#000000;fill-rule:evenodd;stroke:none;stroke-width:0.35277778"
         inkscape:connector-curvature="0" />
      <path
         id="path1235"
         d="m -29.973901,34.688432 c 0,0.214873 -0.17417,0.389047 -0.389033,0.389047 -0.214857,0 -0.389033,-0.174174 -0.389033,-0.389047 0,-0.21487 0.174176,-0.389054 0.389033,-0.389054 0.214863,0 0.389033,0.174184 0.389033,0.389054 z"
         style="fill:#000000;fill-rule:evenodd;stroke:none;stroke-width:0.35277778"
         inkscape:connector-curvature="0" />
      <path
         id="path1237"
         d="m -31.52067,32.643708 c 0,0.234893 -0.19039,0.425298 -0.425273,0.425298 -0.234872,0 -0.425274,-0.190405 -0.425274,-0.425298 0,-0.234884 0.190402,-0.425295 0.425274,-0.425295 0.234883,0 0.425273,0.190411 0.425273,0.425295 z"
         style="fill:#000000;fill-rule:evenodd;stroke:none;stroke-width:0.35277778"
         inkscape:connector-curvature="0" />
      <path
         id="path1239"
         d="m -32.334789,31.206819 c 0,0.229464 -0.185991,0.415466 -0.415441,0.415466 -0.229442,0 -0.415442,-0.186002 -0.415442,-0.415466 0,-0.229454 0.186,-0.415463 0.415442,-0.415463 0.22945,0 0.415441,0.186009 0.415441,0.415463 z"
         style="fill:#000000;fill-rule:evenodd;stroke:none;stroke-width:0.35277778"
         inkscape:connector-curvature="0" />
      <path
         id="path1241"
         d="m -36.236677,31.628837 c 0,0.242665 -0.196694,0.439367 -0.439349,0.439367 -0.242644,0 -0.439346,-0.196702 -0.439346,-0.439367 0,-0.242658 0.196702,-0.439371 0.439346,-0.439371 0.242655,0 0.439349,0.196713 0.439349,0.439371 z"
         style="fill:#000000;fill-rule:evenodd;stroke:none;stroke-width:0.35277778"
         inkscape:connector-curvature="0" />
      <path
         id="path1243"
         d="m -32.839427,26.561149 c 0,0.242665 -0.196694,0.439367 -0.439349,0.439367 -0.242644,0 -0.439346,-0.196702 -0.439346,-0.439367 0,-0.242658 0.196702,-0.439371 0.439346,-0.439371 0.242655,0 0.439349,0.196713 0.439349,0.439371 z"
         style="fill:#000000;fill-rule:evenodd;stroke:none;stroke-width:0.35277778"
         inkscape:connector-curvature="0" />
      <path
         id="path1245"
         d="m -33.7387,28.699384 c 0,0.250543 -0.203084,0.453633 -0.453616,0.453633 -0.250522,0 -0.453612,-0.20309 -0.453612,-0.453633 0,-0.250538 0.20309,-0.453637 0.453612,-0.453637 0.250532,0 0.453616,0.203099 0.453616,0.453637 z"
         style="fill:#000000;fill-rule:evenodd;stroke:none;stroke-width:0.35277778"
         inkscape:connector-curvature="0" />
      <path
         id="path1247"
         d="m -38.064506,42.290123 c 0,0.214873 -0.17417,0.389047 -0.389033,0.389047 -0.214857,0 -0.389033,-0.174174 -0.389033,-0.389047 0,-0.21487 0.174176,-0.389054 0.389033,-0.389054 0.214863,0 0.389033,0.174184 0.389033,0.389054 z"
         style="fill:#000000;fill-rule:evenodd;stroke:none;stroke-width:0.35277778"
         inkscape:connector-curvature="0" />
      <path
         id="path1249"
         d="m -35.76122,39.832849 c 0,0.214873 -0.17417,0.389047 -0.389033,0.389047 -0.214857,0 -0.389033,-0.174174 -0.389033,-0.389047 0,-0.21487 0.174176,-0.389054 0.389033,-0.389054 0.214863,0 0.389033,0.174184 0.389033,0.389054 z"
         style="fill:#000000;fill-rule:evenodd;stroke:none;stroke-width:0.35277778"
         inkscape:connector-curvature="0" />
      <path
         id="path1251"
         d="m -29.657106,27.547681 c 0,0.214873 -0.17417,0.389047 -0.389033,0.389047 -0.214857,0 -0.389033,-0.174174 -0.389033,-0.389047 0,-0.21487 0.174176,-0.389054 0.389033,-0.389054 0.214863,0 0.389033,0.174184 0.389033,0.389054 z"
         style="fill:#000000;fill-rule:evenodd;stroke:none;stroke-width:0.35277778"
         inkscape:connector-curvature="0" />
      <path
         id="path1253"
         d="m -32.382675,28.378222 c 0,0.233189 -0.189012,0.422211 -0.422191,0.422211 -0.233169,0 -0.42219,-0.189022 -0.42219,-0.422211 0,-0.233182 0.189021,-0.422212 0.42219,-0.422212 0.233179,0 0.422191,0.18903 0.422191,0.422212 z"
         style="fill:#000000;fill-rule:evenodd;stroke:none;stroke-width:0.35277778"
         inkscape:connector-curvature="0" />
      <path
         id="path1255"
         d="m -46.724817,23.660444 c 0,0.287175 -0.232769,0.519955 -0.519927,0.519955 -0.28715,0 -0.519931,-0.23278 -0.519931,-0.519955 0,-0.287165 0.232781,-0.519956 0.519931,-0.519956 0.287158,0 0.519927,0.232791 0.519927,0.519956 z"
         style="fill:#000000;fill-rule:evenodd;stroke:none;stroke-width:0.35277778"
         inkscape:connector-curvature="0" />
      <path
         id="path1257"
         d="m -36.974039,39.439383 c 0,0.287175 -0.232769,0.519955 -0.519927,0.519955 -0.28715,0 -0.519931,-0.23278 -0.519931,-0.519955 0,-0.287165 0.232781,-0.519956 0.519931,-0.519956 0.287158,0 0.519927,0.232791 0.519927,0.519956 z"
         style="fill:#000000;fill-rule:evenodd;stroke:none;stroke-width:0.35277778"
         inkscape:connector-curvature="0" />
      <path
         id="path1259"
         d="m -35.486375,42.002278 c 0,0.287175 -0.232769,0.519955 -0.519927,0.519955 -0.28715,0 -0.519931,-0.23278 -0.519931,-0.519955 0,-0.287165 0.232781,-0.519956 0.519931,-0.519956 0.287158,0 0.519927,0.232791 0.519927,0.519956 z"
         style="fill:#000000;fill-rule:evenodd;stroke:none;stroke-width:0.35277778"
         inkscape:connector-curvature="0" />
      <path
         id="path1261"
         d="m -43.83592,42.577658 c 0,0.287175 -0.232769,0.519955 -0.519927,0.519955 -0.28715,0 -0.519931,-0.23278 -0.519931,-0.519955 0,-0.287165 0.232781,-0.519956 0.519931,-0.519956 0.287158,0 0.519927,0.232791 0.519927,0.519956 z"
         style="fill:#000000;fill-rule:evenodd;stroke:none;stroke-width:0.35277778"
         inkscape:connector-curvature="0" />
      <path
         id="path1263"
         d="m -44.038305,41.080032 c 0,0.308151 -0.24977,0.557935 -0.557908,0.557935 -0.308123,0 -0.557907,-0.249784 -0.557907,-0.557935 0,-0.308139 0.249784,-0.557936 0.557907,-0.557936 0.308138,0 0.557908,0.249797 0.557908,0.557936 z"
         style="fill:#000000;fill-rule:evenodd;stroke:none;stroke-width:0.35277778"
         inkscape:connector-curvature="0" />
      <path
         id="path1265"
         d="m -44.044753,18.816953 c 0,0.316988 -0.256939,0.573937 -0.57391,0.573937 -0.316961,0 -0.573909,-0.256949 -0.573909,-0.573937 0,-0.316977 0.256948,-0.573938 0.573909,-0.573938 0.316971,0 0.57391,0.256961 0.57391,0.573938 z"
         style="fill:#000000;fill-rule:evenodd;stroke:none;stroke-width:0.35277778"
         inkscape:connector-curvature="0" />
      <path
         id="path1267"
         d="m -31.689033,29.486378 c 0,0.317098 -0.257023,0.574132 -0.574099,0.574132 -0.317069,0 -0.574104,-0.257034 -0.574104,-0.574132 0,-0.317081 0.257035,-0.574128 0.574104,-0.574128 0.317076,0 0.574099,0.257047 0.574099,0.574128 z"
         style="fill:#000000;fill-rule:evenodd;stroke:none;stroke-width:0.35277778"
         inkscape:connector-curvature="0" />
      <path
         id="path1269"
         d="m -27.053564,28.958503 c 0,0.316988 -0.256939,0.573937 -0.57391,0.573937 -0.316961,0 -0.573909,-0.256949 -0.573909,-0.573937 0,-0.316977 0.256948,-0.573938 0.573909,-0.573938 0.316971,0 0.57391,0.256961 0.57391,0.573938 z"
         style="fill:#000000;fill-rule:evenodd;stroke:none;stroke-width:0.35277778"
         inkscape:connector-curvature="0" />
      <path
         id="path1271"
         d="m -25.44137,36.84806 c 0,0.316988 -0.256939,0.573937 -0.57391,0.573937 -0.316961,0 -0.573909,-0.256949 -0.573909,-0.573937 0,-0.316977 0.256948,-0.573938 0.573909,-0.573938 0.316971,0 0.57391,0.256961 0.57391,0.573938 z"
         style="fill:#000000;fill-rule:evenodd;stroke:none;stroke-width:0.35277778"
         inkscape:connector-curvature="0" />
      <path
         id="path1273"
         d="m -25.095617,30.02387 c 0,0.317098 -0.257023,0.574132 -0.574099,0.574132 -0.317069,0 -0.574104,-0.257034 -0.574104,-0.574132 0,-0.317081 0.257035,-0.574128 0.574104,-0.574128 0.317076,0 0.574099,0.257047 0.574099,0.574128 z"
         style="fill:#000000;fill-rule:evenodd;stroke:none;stroke-width:0.35277778"
         inkscape:connector-curvature="0" />
      <path
         id="path1275"
         d="m -35.184398,32.485603 c 0,0.287175 -0.232769,0.519955 -0.519927,0.519955 -0.28715,0 -0.519931,-0.23278 -0.519931,-0.519955 0,-0.287165 0.232781,-0.519956 0.519931,-0.519956 0.287158,0 0.519927,0.232791 0.519927,0.519956 z"
         style="fill:#000000;fill-rule:evenodd;stroke:none;stroke-width:0.35277778"
         inkscape:connector-curvature="0" />
    </g>
    <g
       aria-label="?"
       style="font-style:normal;font-variant:normal;font-weight:normal;font-stretch:normal;font-size:10.58333302px;line-height:1.25;font-family:pIqaD;-inkscape-font-specification:pIqaD;letter-spacing:0px;word-spacing:0px;fill:#000000;fill-opacity:1;stroke:none;stroke-width:0.26458332"
       id="text822">
      <path
         d="m 115.17674,139.93491 h 8.83667 q 0.41341,-5.52938 3.92741,-8.73332 3.56567,-3.25561 9.40511,-3.25561 5.78776,0 9.1984,3.15226 3.46232,3.15226 3.46232,7.95817 0,4.13412 -1.91202,6.92464 -1.91203,2.79053 -6.40788,5.52938 -5.32267,3.15226 -7.85482,6.87297 -2.53215,3.7207 -2.48047,8.83667 v 4.75423 h 9.04338 v -3.35897 q 0,-4.08244 1.757,-6.66626 1.75699,-2.6355 6.66626,-5.52938 4.96093,-2.99723 7.85481,-7.33805 2.94556,-4.3925 2.94556,-10.49032 0,-8.00984 -6.09782,-13.33252 -6.04614,-5.37435 -15.81299,-5.37435 -10.90372,0 -16.53646,5.83944 -5.58105,5.83944 -5.99446,14.21102 z m 20.72225,55.60384 q 2.53214,0 4.18579,-1.70532 1.70532,-1.70532 1.70532,-4.18579 0,-2.53215 -1.70532,-4.18579 -1.65365,-1.70532 -4.18579,-1.70532 -2.48047,0 -4.18579,1.70532 -1.70533,1.65364 -1.70533,4.18579 0,2.48047 1.70533,4.18579 1.70532,1.70532 4.18579,1.70532 z"
         style="font-style:normal;font-variant:normal;font-weight:normal;font-stretch:normal;font-size:105.83333588px;font-family:'System Font';-inkscape-font-specification:'System Font';fill:#0000ff;fill-opacity:1;stroke-width:0.26458332"
         id="path817" />
    </g>
  </g>
</svg>
