<?xml version="1.0" encoding="UTF-8" standalone="no"?>
<!-- Created with Inkscape (http://www.inkscape.org/) -->

<svg
   xmlns:dc="http://purl.org/dc/elements/1.1/"
   xmlns:cc="http://creativecommons.org/ns#"
   xmlns:rdf="http://www.w3.org/1999/02/22-rdf-syntax-ns#"
   xmlns:svg="http://www.w3.org/2000/svg"
   xmlns="http://www.w3.org/2000/svg"
   xmlns:sodipodi="http://sodipodi.sourceforge.net/DTD/sodipodi-0.dtd"
   xmlns:inkscape="http://www.inkscape.org/namespaces/inkscape"
   width="1024"
   height="1024"
   viewBox="0 0 270.93333 270.93334"
   version="1.1"
   id="svg8"
   inkscape:version="0.92.2 5c3e80d, 2017-08-06"
   sodipodi:docname="logo.svg">
  <defs
     id="defs2" />
  <sodipodi:namedview
     id="base"
     pagecolor="#ffffff"
     bordercolor="#666666"
     borderopacity="1.0"
     inkscape:pageopacity="0.0"
     inkscape:pageshadow="2"
     inkscape:zoom="0.35"
     inkscape:cx="57.142853"
     inkscape:cy="515.01761"
     inkscape:document-units="mm"
     inkscape:current-layer="layer1"
     showgrid="false"
     units="px"
     inkscape:window-width="1366"
     inkscape:window-height="660"
     inkscape:window-x="0"
     inkscape:window-y="1"
     inkscape:window-maximized="1" />
  <metadata
     id="metadata5">
    <rdf:RDF>
      <cc:Work
         rdf:about="">
        <dc:format>image/svg+xml</dc:format>
        <dc:type
           rdf:resource="http://purl.org/dc/dcmitype/StillImage" />
        <dc:title />
      </cc:Work>
    </rdf:RDF>
  </metadata>
  <g
     inkscape:label="Layer 1"
     inkscape:groupmode="layer"
     id="layer1"
     transform="translate(0,-26.06665)">
    <rect
       id="rect3699"
       width="270.93332"
       height="270.93332"
       x="7.1207683e-06"
       y="26.066658"
       style="fill:#000000;stroke-width:0.26458332" />
    <g
       id="g4512"
       transform="matrix(1,0,0,0.88582677,277.20774,-14.503641)"
       style="fill:#ffffff">
      <ellipse
         ry="96.005951"
         rx="103.1875"
         cy="198.72617"
         cx="-141.74107"
         id="path3701"
         style="fill:#ffffff;stroke-width:0.26458332" />
      <path
         inkscape:connector-curvature="0"
         id="path3703"
         d="m -214.69047,243.32736 -22.67858,47.62501 44.60119,-21.16667 z"
         style="fill:#ffffff;stroke:none;stroke-width:0.26458332px;stroke-linecap:butt;stroke-linejoin:miter;stroke-opacity:1" />
    </g>
    <path
       inkscape:connector-curvature="0"
       id="path4518"
       style="font-style:normal;font-variant:normal;font-weight:normal;font-stretch:normal;font-size:70.55555725px;line-height:1.25;font-family:pIqaD;-inkscape-font-specification:pIqaD;letter-spacing:0px;word-spacing:0px;fill:#000000;fill-opacity:1;stroke:none;stroke-width:0.26458332"
       d="m 62.775147,137.10759 q 0.757921,-0.55122 1.515842,-1.13688 0.792372,-0.58567 1.584744,-1.27469 l 6.442328,-5.5466 q 0.792372,-0.75792 1.584744,-1.48139 0.792372,-0.72347 1.584744,-1.41249 3.617351,1.41249 7.475858,2.41156 3.858507,0.96463 7.889269,1.5503 4.065212,0.58566 8.268229,0.86127 4.237465,0.24116 8.543835,0.24116 3.34174,0 6.58013,-0.0344 3.27285,-0.0689 6.61459,-0.24116 l 1.55029,1.55029 q -0.37896,4.16857 -1.34359,8.95725 -0.93017,4.78868 -2.41156,9.78407 -1.44694,4.96094 -3.41065,9.88743 -1.9637,4.89203 -4.40972,9.2673 -2.41157,4.37528 -5.271,7.99263 -2.85943,3.61735 -6.097816,5.96001 h -2.101508 q 1.894803,-4.13411 3.376194,-8.23378 1.48139,-4.09966 2.48047,-7.92372 0.99908,-3.82405 1.51584,-7.3036 0.51677,-3.47955 0.51677,-6.37343 0,-4.85758 -1.51585,-7.54476 -1.51584,-2.72162 -4.616425,-2.89388 -2.687175,0.13781 -4.788683,1.58475 -2.101508,1.41249 -3.755154,4.20302 -1.653646,2.75607 -3.341743,6.06336 -1.688097,3.3073 -3.410644,7.26915 -1.79145,3.96186 -4.203017,7.71702 -2.411567,3.7207 -5.477702,7.44141 -3.066135,3.68625 -7.269152,6.51123 -4.203016,2.85943 -9.74962,4.78868 h -2.101508 q 5.374349,-5.71886 9.405111,-11.09321 4.030761,-5.4088 6.717936,-10.30083 2.687174,-4.92649 4.030762,-9.23286 1.343587,-4.34082 1.343587,-7.92372 0,-6.16672 -3.479547,-9.74962 -3.445095,-3.61735 -10.266384,-4.34082 z" />
    <path
       inkscape:connector-curvature="0"
       id="path4520"
       style="font-style:normal;font-variant:normal;font-weight:normal;font-stretch:normal;font-size:70.55555725px;line-height:1.25;font-family:pIqaD;-inkscape-font-specification:pIqaD;letter-spacing:0px;word-spacing:0px;fill:#000000;fill-opacity:1;stroke:none;stroke-width:0.26458332"
       d="m 118.38033,181.99718 q 5.4088,-2.72162 11.85113,-10.8865 3.10059,-3.96186 6.33898,-8.61274 3.27284,-4.68533 6.40787,-9.43956 3.13504,-4.78868 6.02892,-9.30176 2.92833,-4.54752 5.3399,-8.19932 5.13319,-7.71702 7.78592,-9.30176 h 13.33252 12.7813 v 2.10151 q -5.78776,1.55029 -10.78315,3.7207 -4.99539,2.13596 -8.68164,4.68533 -3.6518,2.54937 -5.75331,5.37435 -2.06706,2.82498 -2.06706,5.64995 0,1.96371 1.03353,3.78961 1.03353,1.79145 3.20394,3.4451 2.20486,1.65364 5.61551,3.10058 3.44509,1.44694 8.23378,2.68718 v 2.13596 q -1.757,0.17225 -3.72071,0.31005 -1.9637,0.13781 -4.23747,0.24116 l -8.95724,0.41341 q -2.13596,0.13781 -3.99631,0.34451 -1.86036,0.17226 -3.27285,0.44786 -1.37803,0.24116 -2.20486,0.62012 -0.79237,0.37896 -0.82682,0.86128 0.20671,2.06705 5.271,3.03168 2.58382,0.48231 5.58105,1.27468 3.03169,0.79238 6.51123,1.89481 6.9591,2.20486 12.54015,7.68256 5.68441,5.5466 7.20025,16.74316 h -2.10151 q -1.99815,-2.89388 -3.99631,-4.96093 -1.9637,-2.06706 -4.27192,-3.47955 -2.30821,-1.37804 -5.09874,-2.23931 -2.79053,-0.82682 -6.37343,-1.27469 -3.5829,-0.41341 -8.13042,-0.55121 -4.51308,-0.13781 -10.30084,-0.13781 -2.17041,0 -4.54752,0 -2.37712,0.0345 -4.99539,0.0345 -9.02615,0 -20.73948,-0.10336 z" />
    <path
       inkscape:connector-curvature="0"
       id="path4522"
       style="font-style:normal;font-variant:normal;font-weight:normal;font-stretch:normal;font-size:70.55555725px;line-height:1.25;font-family:pIqaD;-inkscape-font-specification:pIqaD;letter-spacing:0px;word-spacing:0px;fill:#000000;fill-opacity:1;stroke:none;stroke-width:0.26458332"
       d="m 195.29969,150.0956 q 0.0689,-0.96463 0.62011,-1.96371 0.55122,-1.03352 1.34359,-2.13595 0.79237,-1.10244 1.72255,-2.27377 0.96462,-1.20578 1.8259,-2.51492 0.89572,-1.30913 1.24023,-2.75607 0.34451,-1.44694 0.37896,-3.10059 -0.17225,-3.34174 -3.7896,-7.54476 l 1.55029,-1.55029 q 3.23839,1.65364 5.3399,3.20394 2.13596,1.51584 3.37619,3.03168 1.24024,1.48139 1.72255,2.96278 0.51676,1.48139 0.51676,3.03169 0,1.13688 -0.41341,2.44601 -0.37896,1.30914 -0.99907,2.61828 -0.62012,1.30913 -1.37804,2.58382 -0.75792,1.27468 -1.48139,2.41157 -1.10243,1.72254 -1.58475,3.30729 -0.44786,1.55029 -0.44786,3.03168 0.10335,0.96463 0.75792,1.96371 0.65457,0.99907 1.37804,1.99815 0.75792,0.96463 1.34359,1.86035 0.62011,0.89573 0.62011,1.65365 0,0.93017 -0.89572,1.58474 -0.89573,0.62012 -3.06614,1.10243 -1.79145,-0.24115 -3.20394,-1.13688 -1.41248,-0.89572 -2.48046,-2.13596 -1.06798,-1.27468 -1.8259,-2.82498 -0.75793,-1.55029 -1.24024,-3.06613 -0.48231,-1.55029 -0.72347,-2.99723 -0.2067,-1.44694 -0.2067,-2.51492 z" />
  </g>
</svg>
