<?xml version="1.0" encoding="UTF-8" standalone="no"?>
<!-- Created with Inkscape (http://www.inkscape.org/) -->

<svg
   xmlns:dc="http://purl.org/dc/elements/1.1/"
   xmlns:cc="http://creativecommons.org/ns#"
   xmlns:rdf="http://www.w3.org/1999/02/22-rdf-syntax-ns#"
   xmlns:svg="http://www.w3.org/2000/svg"
   xmlns="http://www.w3.org/2000/svg"
   xmlns:sodipodi="http://sodipodi.sourceforge.net/DTD/sodipodi-0.dtd"
   xmlns:inkscape="http://www.inkscape.org/namespaces/inkscape"
   width="1024"
   height="1024"
   viewBox="0 0 270.93333 270.93334"
   version="1.1"
   id="svg8"
   inkscape:version="0.92.2 5c3e80d, 2017-08-06"
   sodipodi:docname="noklingon.svg"
   inkscape:export-filename="/Users/danix/src/HIja'/img/noklingon.png"
   inkscape:export-xdpi="96"
   inkscape:export-ydpi="96">
  <defs
     id="defs2" />
  <sodipodi:namedview
     id="base"
     pagecolor="#ffffff"
     bordercolor="#666666"
     borderopacity="1.0"
     inkscape:pageopacity="0.0"
     inkscape:pageshadow="2"
     inkscape:zoom="0.35"
     inkscape:cx="225.71428"
     inkscape:cy="515.01761"
     inkscape:document-units="mm"
     inkscape:current-layer="text4516"
     showgrid="false"
     units="px"
     inkscape:window-width="1366"
     inkscape:window-height="658"
     inkscape:window-x="0"
     inkscape:window-y="1"
     inkscape:window-maximized="1" />
  <metadata
     id="metadata5">
    <rdf:RDF>
      <cc:Work
         rdf:about="">
        <dc:format>image/svg+xml</dc:format>
        <dc:type
           rdf:resource="http://purl.org/dc/dcmitype/StillImage" />
        <dc:title />
      </cc:Work>
    </rdf:RDF>
  </metadata>
  <g
     inkscape:label="Layer 1"
     inkscape:groupmode="layer"
     id="layer1"
     transform="translate(0,-26.06665)">
    <path
       style="fill:#ffffff;stroke:#000000;stroke-width:2.6666667;opacity:0.99999999;stroke-miterlimit:4;stroke-dasharray:none"
       d="M 512 190.57227 A 390 321.42856 0 0 0 122 512 A 390 321.42856 0 0 0 208.26172 713.45508 L 150.57227 820.77344 L 276.62109 767.7832 A 390 321.42856 0 0 0 512 833.42773 A 390 321.42856 0 0 0 902 512 A 390 321.42856 0 0 0 512 190.57227 z "
       transform="matrix(0.26458333,0,0,0.26458333,0,26.06665)"
       id="path3701" />
    <g
       aria-label=""
       style="font-style:normal;font-variant:normal;font-weight:normal;font-stretch:normal;font-size:10.58333302px;line-height:1.25;font-family:pIqaD;-inkscape-font-specification:pIqaD;letter-spacing:0px;word-spacing:0px;opacity:0.87999998;fill:#000000;fill-opacity:1;stroke:none;stroke-width:0.26458332"
       id="text4516">
      <g
         aria-label=""
         style="font-style:normal;font-variant:normal;font-weight:normal;font-stretch:normal;font-size:10.58333302px;line-height:1.25;font-family:pIqaD;-inkscape-font-specification:pIqaD;letter-spacing:0px;word-spacing:0px;fill:#000000;fill-opacity:1;stroke:none;stroke-width:0.07000434"
         id="text836">
        <path
           d="m 127.78785,144.67029 q -3.10059,0.93017 -5.76709,2.17041 -2.6665,1.11621 -4.89893,2.6665 -2.29443,1.5503 -4.34082,3.41065 -1.92236,1.92236 -3.53466,3.96875 -1.92237,2.29443 -3.22461,4.71289 -1.36426,2.23242 -2.1084,4.7749 -0.93018,2.54248 -1.30225,5.20898 -0.49609,2.54248 -0.37207,5.33301 0,1.17822 0,2.04639 0,0.74414 0.12402,1.55029 0,0.74414 0.24805,1.48828 0.12403,0.93018 0.4961,1.92237 1.17822,-0.86817 2.29443,-1.79834 1.30225,-0.86817 2.29443,-1.86036 1.11621,-0.93017 2.17041,-1.92236 0.99219,-0.86816 2.04639,-1.92236 0.86816,-0.86817 1.6123,-1.86035 0.93018,-0.93018 1.67432,-1.92237 0.74414,-0.93017 1.48828,-1.92236 0.68213,-0.99219 1.42627,-2.04639 l 17.30127,28.71143 q -2.17041,0.12402 -3.84473,0.12402 -1.79834,0.12403 -3.16259,0.24805 -1.42627,0.12402 -2.66651,0.37207 -1.30224,0.12402 -2.54248,0.43408 -1.42627,0.37207 -2.54248,0.62012 -1.30224,0.24805 -2.41846,0.62012 -1.24023,0.37207 -2.41845,0.86816 -1.11621,0.43408 -2.17041,0.93018 1.17822,1.11621 2.54248,2.17041 1.30224,0.86816 2.6665,1.73632 1.30225,0.93018 2.79053,1.5503 1.42627,0.62011 2.91455,1.11621 1.42627,0.62012 2.97656,1.0542 1.48828,0.37207 3.03858,0.74414 1.6123,0.24804 3.28662,0.37207 1.67431,0.12402 3.41064,0.12402 1.67432,0 3.1626,-0.12402 1.67432,-0.12403 3.34863,-0.37207 1.48828,-0.37207 3.03858,-0.74414 1.48828,-0.43408 3.03857,-1.0542 1.42627,-0.4961 2.79053,-1.11621 1.42627,-0.62012 2.79053,-1.5503 1.30224,-0.74414 2.6665,-1.73632 1.30225,-0.93018 2.54248,-2.04639 -1.24023,-0.24805 -2.54248,-0.62012 -1.24023,-0.43408 -2.6665,-0.68213 -1.24024,-0.37207 -2.54248,-0.62011 -1.24024,-0.24805 -2.54248,-0.62012 -1.36426,-0.12402 -2.79053,-0.37207 -1.24024,-0.24805 -2.66651,-0.37207 -1.36425,-0.31006 -2.79052,-0.43408 -1.36426,-0.12403 -2.79053,-0.24805 l 17.30127,-29.0835 q 0.62012,1.30225 1.36426,2.41846 0.74414,1.17822 1.67431,2.29443 0.74414,1.17823 1.61231,2.17041 0.93017,0.99219 1.92236,1.92237 0.86816,0.99218 1.92236,1.98437 0.86817,0.93018 2.04639,1.67432 0.99219,0.86816 1.98438,1.79834 1.17822,0.74414 2.29443,1.48828 0.12402,-0.99219 0.37207,-1.86035 0.12402,-0.80615 0.24805,-1.67432 0.12402,-0.74414 0.24804,-1.79834 0,-0.86816 0.18604,-2.29443 -0.18604,-2.79053 -0.68213,-5.45703 -0.49609,-2.66651 -1.24023,-5.20899 -0.93018,-2.41845 -2.17041,-4.7749 -1.24024,-2.41846 -2.91456,-4.71289 -1.79834,-2.17041 -3.84472,-3.96875 -1.98438,-1.86035 -4.27881,-3.28662 -2.29443,-1.55029 -4.83691,-2.66651 -2.54249,-1.11621 -5.33301,-2.04638 0.24804,1.30224 0.49609,2.41846 0.37207,1.30224 0.74414,2.41845 0.43408,1.30225 0.80615,2.41846 0.4961,1.11621 0.99219,2.17041 0.24805,1.24023 0.62012,2.41846 0.43408,1.24023 0.93017,2.41845 0.4961,1.11621 0.86817,2.1084 0.49609,1.17822 1.11621,2.17041 l -16.37109,27.59522 -16.49512,-27.59522 q 0.37207,-1.11621 0.86816,-2.41846 0.55811,-1.11621 1.0542,-2.41845 0.37207,-1.11621 0.86817,-2.35645 0.49609,-1.17822 0.99218,-2.41845 0.43409,-1.0542 0.80616,-2.17041 0.37207,-1.17823 0.74414,-2.29444 0.37207,-0.99219 0.74414,-2.17041 0.37207,-1.11621 0.80615,-2.29443 z m 9.61182,-56.740725 q 0.12402,3.658692 0.49609,7.069336 0.31006,3.59668 0.68213,7.007329 0.37207,3.53466 0.86816,6.8833 0.4961,3.41064 1.11621,6.69726 0.55811,3.47266 1.0542,6.75928 0.62012,3.28662 1.36426,6.44922 0.68213,3.28662 1.55029,6.51123 0.74414,3.28662 1.67432,6.32519 3.1626,0.86817 6.20117,2.17041 2.91455,1.11621 5.58106,2.79053 2.6665,1.67432 4.96093,3.65869 2.41846,2.04639 4.46485,4.34082 1.86035,2.54248 3.41064,5.08496 1.48828,2.66651 2.54248,5.45704 0.99219,2.79052 1.48828,5.70507 0.55811,2.91455 0.55811,5.95313 -0.12402,1.67431 -0.12402,2.79053 -0.12403,1.17822 -0.31006,2.04638 -0.12403,1.0542 -0.37207,1.92237 -0.24805,0.99218 -0.4961,2.29443 1.17823,0.74414 2.41846,1.24023 1.11621,0.68213 2.41846,1.17823 1.24023,0.49609 2.54248,0.86816 1.24023,0.37207 2.54248,0.62012 1.67431,0.49609 3.03857,0.80615 1.42627,0.24805 2.79053,0.37207 1.30225,0.24805 2.79053,0.24805 1.55029,0 3.41064,-0.24805 -0.86816,1.48828 -1.86035,2.79053 -1.0542,1.11621 -2.29443,2.29443 -1.30225,1.11621 -2.66651,1.98438 -1.42627,1.0542 -3.03857,1.79834 -1.79834,0.86816 -3.47266,1.55029 -1.73633,0.62012 -3.53467,0.99219 -1.92236,0.37207 -3.78271,0.62011 -1.92236,0.12403 -3.96875,0.12403 -1.24023,0.12402 -2.29443,0 -0.86817,0 -1.48829,-0.12403 -0.80615,0 -1.67431,-0.12402 -0.74414,-0.24805 -1.79834,-0.49609 -1.48828,1.42627 -3.03858,2.54248 -1.36425,1.11621 -3.03857,2.17041 -1.48828,0.99218 -3.1626,1.92236 -1.55029,0.86816 -3.1626,1.48828 -1.79834,0.62012 -3.59668,1.17822 -1.6123,0.37207 -3.41064,0.74414 -1.92236,0.37208 -3.65869,0.4961 -1.92236,0.12402 -3.7207,0.12402 -1.98438,0 -3.78272,-0.12402 -1.92236,-0.12402 -3.7207,-0.4961 -1.86035,-0.24804 -3.65869,-0.62011 -1.67432,-0.55811 -3.28662,-1.17822 -1.79834,-0.62012 -3.41065,-1.36426 -1.67432,-0.93018 -3.22461,-1.79834 -1.48828,-0.99219 -2.91455,-2.04639 -1.48828,-1.11621 -2.79053,-2.41846 -1.48828,0.80616 -2.79052,1.5503 -1.24024,0.86816 -2.54248,1.79834 -1.11622,0.74414 -2.29444,1.73632 -0.99219,0.93018 -1.86035,1.79834 -1.0542,0.99219 -1.922363,2.04639 -1.054199,0.99219 -1.79834,2.1084 -0.74414,1.17822 -1.364258,2.29443 -0.682128,1.17823 -1.178222,2.41846 -0.372071,-0.37207 -0.744141,-0.99219 -0.248047,-0.49609 -0.620117,-1.17822 -0.248047,-0.49609 -0.558106,-1.11621 -0.37207,-0.62012 -0.496093,-1.42627 -0.248047,-0.49609 -0.372071,-1.24023 -0.124023,-0.62012 -0.248046,-1.42627 0,-0.62012 -0.124024,-1.48829 0,-0.74414 0,-1.67431 0,-1.48828 0.124024,-3.03858 0.124023,-1.67431 0.37207,-3.03857 0.248047,-1.55029 0.74414,-2.91455 0.434083,-1.55029 1.0542,-2.91455 0.496093,-1.30225 1.116211,-2.54248 0.682129,-1.42627 1.550293,-2.66651 0.74414,-1.30224 1.798339,-2.54248 0.992188,-1.17822 2.108394,-2.41845 -0.37207,-1.30225 -0.620112,-2.17041 -0.248047,-0.99219 -0.372071,-1.92237 -0.124023,-0.86816 -0.124023,-1.73633 -0.124023,-1.05419 -0.124023,-2.54248 0,-3.16259 0.37207,-6.3872 0.496089,-3.03858 1.550289,-5.95313 0.86817,-2.79053 2.23243,-5.45703 1.55029,-2.6665 3.47265,-5.08496 1.86035,-2.29443 4.15479,-4.34082 2.41845,-1.98438 5.08496,-3.65869 2.6665,-1.67432 5.70508,-2.91455 3.10058,-1.30225 6.51123,-2.29444 0.86816,-3.16259 1.6123,-6.44921 0.93018,-3.22461 1.67432,-6.51124 0.62011,-3.28662 1.30224,-6.57324 0.62012,-3.47265 1.24024,-6.8833 0.49609,-3.28662 0.86816,-6.57324 0.55811,-3.47266 0.93018,-6.8833 0.37207,-3.286622 0.74414,-6.883302 0.37207,-3.410645 0.62012,-6.945313 z"
           style="font-size:127px;stroke-width:0.07000434"
           id="path818" />
      </g>
      <circle
         style="opacity:1;fill:none;stroke:#ff0000;stroke-width:8.46666622;stroke-miterlimit:4;stroke-dasharray:none"
         id="path838"
         cx="135.46666"
         cy="161.53331"
         r="78.241074" />
      <path
         style="fill:none;stroke:#ff0000;stroke-width:8.46666622;stroke-linecap:butt;stroke-linejoin:miter;stroke-miterlimit:4;stroke-dasharray:none;stroke-opacity:1"
         d="M 78.392265,104.45891 192.54107,218.60772"
         id="path840"
         inkscape:connector-curvature="0" />
    </g>
  </g>
</svg>
